# xmcd CD database file
#
# Track frame offsets:
#	150
#	25336
#	49146
#	68922
#	80781
#	92842
#	116023
#	132509
#
# Disc length: 2255 seconds
#
# Revision: 0
# Processed by: cddbd v1.4PL0 Copyright (c) Steve Scherf et al.
# Submitted via: CDex 1.50Beta6
#
DISCID=7108cd08
DTITLE=Slipknot - Mate. Feed. Kill. Repeat.
DYEAR=1996
DGENRE=New Age
TTITLE0=Slipknot
TTITLE1=Gently
TTITLE2=Do Nothing/Bitchslap
TTITLE3=Only One
TTITLE4=Tattered and Torn
TTITLE5=Confessions
TTITLE6=Some Feel
TTITLE7=Killers Are Quiet
EXTD=YEAR: 1996
EXTT0=
EXTT1=
EXTT2=
EXTT3=
EXTT4=
EXTT5=
EXTT6=
EXTT7=
PLAYORDER=
